<svg xmlns="http://www.w3.org/2000/svg" shape-rendering="geometricPrecision" text-rendering="geometricPrecision" image-rendering="optimizeQuality" fill-rule="evenodd" clip-rule="evenodd" viewBox="0 0 512 497.25"><path fill-rule="nonzero" d="m204.74 216.92 86.71-.01c27.93 0 48.56 1.51 63.49 4.73 17.1 3.69 27.58 9.9 33.26 18.82 6.6 10.37 9.93 26.64 11.55 48.32 1.52 20.57 1.63 46.04 1.63 76.1v111.44h89.69V364.88c0-39.14-.24-72.37-3.89-100.58-3.58-27.65-10.44-51.12-23.64-71.82-14.31-22.45-33.55-38.63-60.52-49.22-27.85-10.93-64.08-16.05-111.57-16.05h-87.63c-5.78 0-10.47-4.68-10.47-10.46 0-.64.06-1.28.17-1.89 1.2-12.34 2.76-25.06 4.73-38.5l.05-.34c1.98-13.52 4.46-28.46 7.46-45.13.15-.85.18-1.71.09-2.55-.07-.76-.26-1.52-.52-2.21l-.1-.23c-.38-.82-.85-1.55-1.37-2.13a9.76 9.76 0 0 0-1.93-1.59c-.77-.44-1.62-.8-2.49-1.01-.76-.2-1.52-.3-2.25-.31l-.87.06c-.61.08-1.27.23-1.94.48l-.51.18c-.5.23-1.03.55-1.58.95L23.6 162.05l-.8.87c-.34.41-.64.87-.9 1.37l-.2.37c-.23.47-.41.95-.53 1.42-.15.59-.25 1.26-.3 1.98l-.01.11c0 .65.05 1.29.16 1.87.12.64.29 1.18.5 1.63l.75 1.33 1.12 1.34 168.26 146.68c.78.67 1.55 1.18 2.27 1.51.63.29 1.35.48 2.09.57l.63.1c.73.06 1.44.03 2.08-.09.8-.14 1.64-.44 2.45-.84l.32-.15a8.4 8.4 0 0 0 1.95-1.5c.66-.69 1.23-1.46 1.64-2.26a9 9 0 0 0 .78-2.4c.13-.8.15-1.64.04-2.47l-.02-.16c-2.39-15.56-4.59-30.35-6.68-45.52-1.94-14.12-3.57-27.12-4.84-39.37-.59-5.73 3.59-10.86 9.32-11.45l1.06-.07zm86.71 20.92h-75.06c1.02 8.67 2.19 17.7 3.49 27.18 1.74 12.63 4 27.75 6.63 44.95l.15 1.23c.32 2.82.23 5.57-.21 8.19-.49 2.95-1.44 5.78-2.75 8.36l-.04.05a30.73 30.73 0 0 1-5.18 7.28c-2.13 2.2-4.56 4.06-7.16 5.46l-.91.45a30.833 30.833 0 0 1-8.02 2.64c-2.78.5-5.62.63-8.38.31l-.54-.08c-2.73-.34-5.5-1.13-8.21-2.37a30.285 30.285 0 0 1-7.18-4.62C128.16 286.96 61.72 237.78 8.43 188.9a36.456 36.456 0 0 1-3.14-3.82v-.04c-1.11-1.57-2.06-3.15-2.77-4.75-.9-2.03-1.6-4.14-2.01-6.33-.39-2.02-.56-4.18-.49-6.48l.01-.64c.12-2.03.45-4.05.96-5.99.51-1.97 1.2-3.82 2.04-5.52l.4-.77c.87-1.67 1.95-3.28 3.18-4.8.98-1.21 2.1-2.37 3.32-3.44l.72-.67L179.66 5.87a29.45 29.45 0 0 1 6.45-3.65l1-.43c2.43-.9 4.97-1.46 7.54-1.68l1.24-.08c2.96-.13 5.88.17 8.62.86 2.83.72 5.55 1.85 8.03 3.32l.05.04c2.56 1.53 4.87 3.43 6.84 5.63 1.95 2.24 3.61 4.74 4.83 7.44l.38.91a29.3 29.3 0 0 1 1.98 8.06c.26 2.63.17 5.42-.34 8.27-2.83 15.75-5.26 30.44-7.31 44.48l-.05.34c-1.39 9.54-2.57 18.47-3.53 26.91h76.06c50.07 0 88.76 5.58 119.17 17.53 31.32 12.29 53.74 31.18 70.49 57.46 15.03 23.59 22.78 49.8 26.75 80.4 3.88 30.05 4.14 63.69 4.14 103.2v121.9c0 5.78-4.69 10.47-10.46 10.47H390.91c-5.77 0-10.46-4.69-10.46-10.47v-121.9c0-29.89-.1-55.15-1.55-74.63-1.36-18.39-3.78-31.55-8.27-38.59-2.57-4.04-8.84-7.18-20.02-9.59-13.36-2.88-32.59-4.23-59.16-4.23z"/></svg>